<?xml version="1.0" encoding="UTF-8"?>
<svg width="18px" height="18px" viewBox="0 0 18 18" version="1.1" xmlns="http://www.w3.org/2000/svg" xmlns:xlink="http://www.w3.org/1999/xlink">
    <title>全屏</title>
    <g id="页面-1" stroke="none" stroke-width="1" fill="none" fill-rule="evenodd">
        <g id="白泽" transform="translate(-1268.000000, -94.000000)" fill="currentColor" fill-rule="nonzero">
            <g id="全屏" transform="translate(1268.000000, 94.000000)">
                <rect id="矩形" opacity="0" x="0" y="0" width="18" height="18"></rect>
                <path d="M4.2328125,3.4453125 L7.36875,6.58125 L6.5671875,7.3828125 L3.4453125,4.2328125 L2.25,5.428125 L2.25,2.25 L5.428125,2.25 L4.2328125,3.4453125 Z M6.58125,10.63125 L3.4453125,13.7671875 L2.25,12.571875 L2.25,15.75 L5.428125,15.75 L4.2328125,14.5546875 L7.36875,11.41875 L6.58125,10.63125 L6.58125,10.63125 Z M12.571875,2.25 L13.7671875,3.4453125 L10.63125,6.58125 L11.4328125,7.3828125 L14.56875,4.246875 L15.7640625,5.4421875 L15.7640625,2.25 L12.571875,2.25 Z M11.41875,10.63125 L10.6171875,11.4328125 L13.753125,14.56875 L12.5578125,15.7640625 L15.75,15.7640625 L15.75,12.571875 L14.5546875,13.7671875 L11.41875,10.63125 L11.41875,10.63125 Z" id="形状"></path>
            </g>
        </g>
    </g>
</svg>