<?xml version="1.0" encoding="UTF-8"?>
<svg width="18px" height="18px" viewBox="0 0 18 18" version="1.1" xmlns="http://www.w3.org/2000/svg" xmlns:xlink="http://www.w3.org/1999/xlink">
    <title>缩小</title>
    <g id="页面-1" stroke="none" stroke-width="1" fill="none" fill-rule="evenodd">
        <g id="白泽" transform="translate(-1288.000000, -94.000000)" fill="currentColor" fill-rule="nonzero">
            <g id="327全屏" transform="translate(1288.000000, 94.000000)">
                <rect id="矩形" opacity="0" x="0" y="0" width="18" height="18"></rect>
                <path d="M5.3859375,6.1875 L2.25,3.0515625 L3.0515625,2.25 L6.1734375,5.4 L7.36875,4.2046875 L7.36875,7.3828125 L4.190625,7.3828125 L5.3859375,6.1875 Z M3.0375,15.75 L6.1734375,12.6140625 L7.36875,13.809375 L7.36875,10.63125 L4.190625,10.63125 L5.3859375,11.8265625 L2.25,14.9625 L3.0375,15.75 L3.0375,15.75 Z M13.8234375,7.3828125 L12.628125,6.1875 L15.7640625,3.0515625 L14.9625,2.25 L11.8265625,5.3859375 L10.63125,4.190625 L10.63125,7.3828125 L13.8234375,7.3828125 Z M14.9484375,15.7640625 L15.75,14.9625 L12.6140625,11.8265625 L13.809375,10.63125 L10.6171875,10.63125 L10.6171875,13.8234375 L11.8125,12.628125 L14.9484375,15.7640625 L14.9484375,15.7640625 Z" id="形状"></path>
            </g>
        </g>
    </g>
</svg>